#N canvas 0 0 925 1132 10;
#X declare -lib xlab -path examples;
#X obj 13 12 declare -lib xlab -path examples;
#X msg 69 107 reload;
#X obj 10 164 dddd.ex1;
#X msg 10 70 list (1 (2 1 1) 3 4);
#X obj 10 186 dddd.ex1;
#X connect 1 0 2 0;
#X connect 2 0 4 0;
#X connect 3 0 2 0;
